<svg version="1.1" x="0px" y="0px" width="462" height="269" xmlns="http://www.w3.org/2000/svg" xmlns:xlink="http://www.w3.org/1999/xlink" xmlns:a="http://ns.adobe.com/AdobeSVGViewerExtensions/3.0/" xml:space="preserve"><g transform="translate(160.19967085716 20.006238847204) scale(1.2866665926847 1.2863447378923) rotate(0 55 64.199996948242)"><path d="M49.595,0c-5.299,6.251-8.963,14.178-8.684,22.51c-0.021,8.776,4.306,17.024,10.536,23.027
	c1.376-9.542,1.293-19.219,0.113-28.761c2.98,8.414,4.45,17.325,4.171,26.256c3.333-5.558,5.857-11.829,5.672-18.411
	C61.568,15.1,56.652,6.147,49.595,0z M72.56,54.096c5.62-0.083,11.498-1.128,16.011-4.729c5.464-3.984,8.3-10.556,9.107-17.128
	c-5.361-0.228-10.971,0.445-15.556,3.436c-5.475,3.198-8.683,9.014-10.339,14.965C76.182,46.23,81.305,42.598,86.977,40
	C81.739,44.243,76.637,48.704,72.56,54.096z M29.548,80.818c-4.605-1.49-9.604-2.69-14.386-1.181
	c-5.268,1.273-9.346,5.176-12.419,9.46c4.398,2.483,9.448,4.233,14.571,3.384C23.203,91.84,28.13,88,31.607,83.395
	c-5.744-0.011-11.374,1.189-17.015,2.059C19.322,83.188,24.404,81.801,29.548,80.818z M25.005,37.63
	c-4.224-3.291-9.698-4.046-14.894-3.891c0.797,5.185,2.649,10.474,6.779,13.961c4.057,3.892,9.78,5.113,15.244,5.123
	c-3.56-4.522-7.845-8.341-12.212-12.046c4.781,2.194,8.963,5.423,12.927,8.849C31.234,45.092,29.093,40.445,25.005,37.63z
	 M93.858,79.607c-4.75-1.46-9.687-0.259-14.262,1.211c5.093,0.993,10.163,2.308,14.852,4.595
	c-5.619-0.848-11.208-2.008-16.911-2.028c3.085,3.933,7.027,7.472,12.016,8.652c5.765,1.635,11.84,0,16.891-2.95
	C103.276,84.823,99.209,80.829,93.858,79.607z" fill="#5e8b3f"></path><path d="M35.975,48c0.031,2.515-0.403,5.247,0.828,7.576c1.19,2.567,3.881,3.84,6.188,5.216
	c-0.786-2.111-1.687-4.171-2.598-6.22c0.932,1.024,2.795,3.063,3.726,4.088C44.026,53.578,40.632,49.573,35.975,48z M38.334,35.684
	c-1.459-2.763-3.125-5.402-4.646-8.124c1.914,1.998,3.705,4.098,5.537,6.179c-0.662-2.856-1.211-5.951-3.313-8.155
	c-1.986-2.329-5.07-3.125-7.854-4.026c0.083,3.26,0.259,6.82,2.442,9.459C32.353,33.594,35.478,34.639,38.334,35.684z
	 M67.426,35.695c2.888-1.087,6.086-2.163,7.918-4.833c2.111-2.618,2.152-6.126,2.328-9.314c-2.753,0.911-5.785,1.666-7.772,3.943
	c-2.152,2.173-2.722,5.299-3.321,8.176c1.831-2.09,3.643-4.191,5.557-6.199C70.541,30.189,68.854,32.869,67.426,35.695z
	 M5.755,57.936c2.888,1.77,6.396,1.449,9.604,1.056c-2.722-2.029-5.608-3.778-8.486-5.547c2.825,1.056,5.609,2.225,8.445,3.291
	c-1.925-2.246-3.809-4.823-6.717-5.816C5.848,49.811,2.836,50.391,0,50.732C1.387,53.475,2.867,56.486,5.755,57.936z
	 M100.109,57.863c2.784-1.511,4.264-4.419,5.641-7.12c-2.732-0.311-5.6-0.921-8.279,0.052c-3.084,0.962-5.103,3.653-7.162,5.951
	c2.908-1.066,5.785-2.235,8.704-3.291c-2.98,1.729-5.931,3.508-8.714,5.537C93.579,59.364,97.181,59.736,100.109,57.863z
	 M33.066,68.854c-2.132-1.418-4.347-2.681-6.562-3.922c2.194,0.631,4.378,1.315,6.593,1.924c-1.842-1.583-3.519-3.57-5.899-4.336
	c-2.452-0.797-5.029-0.104-7.493,0.228c1.553,2.152,3.022,4.678,5.609,5.744C27.747,69.63,30.5,68.958,33.066,68.854z
	 M64.476,42.625c-0.704,1.809-0.086,3.761,0.113,5.606c0.919-1.605,1.722-3.263,2.511-4.919c-0.35,1.612-0.736,3.219-1.07,4.845
	c1.053-1.404,2.404-2.709,2.842-4.462c0.456-1.807-0.168-3.631-0.525-5.391C66.868,39.527,65.119,40.708,64.476,42.625z
	 M75.499,66.215c-2.66,1.158-4.306,3.674-6.055,5.836c2.618-1.148,5.247-2.318,7.948-3.28c-2.711,1.771-5.464,3.487-7.959,5.558
	c3.25,0.021,6.789,0.455,9.688-1.377c2.877-1.541,4.336-4.594,5.754-7.378C81.76,65.263,78.396,64.683,75.499,66.215z
	 M16.963,72.051c-2.422-1.914-4.885-4.232-8.104-4.574c-2.888-0.476-5.682,0.59-8.352,1.501c2.049,2.483,4.232,5.258,7.534,6.065
	c3.073,0.973,6.261-0.053,9.263-0.839c-3.136-1.563-6.417-2.784-9.666-4.067C10.753,70.749,13.848,71.442,16.963,72.051z
	 M97.005,67.458c-3.26,0.279-5.733,2.617-8.155,4.553c3.115-0.6,6.23-1.283,9.355-1.873c-3.28,1.242-6.582,2.463-9.729,4.025
	c3.022,0.881,6.271,1.895,9.387,0.828c3.198-0.858,5.33-3.56,7.328-6.013C102.552,68.109,99.83,67.012,97.005,67.458z
	 M38.624,87.089c-2.463,1.314-5.278,2.35-7.017,4.647c-2.102,2.441-2.309,5.795-2.691,8.838c3.054-0.745,6.406-1.512,8.569-4.016
	c2.339-2.339,2.795-5.744,3.322-8.849c-2.546,1.977-4.864,4.202-7.234,6.375C35.198,91.715,36.938,89.418,38.624,87.089z" fill="#5e8b3f"></path><path d="M39.41,74.763c2.66,1.646,6.511-0.527,6.469-3.653c0.331-3.332-3.768-5.816-6.572-3.994
	C36.399,68.606,36.451,73.366,39.41,74.763z M69.258,80.725c-3.042,0.651-4.305,4.74-2.318,7.078
	c1.915,2.484,6.469,1.873,7.473-1.189C75.861,83.499,72.56,79.721,69.258,80.725z M93.995,123.835
	c-3.452-1.087-6.98-1.932-10.552-2.517c-5.286-0.865-10.768-1.443-14.796-5.417c-3.012-3.053-2.515-8.021-0.569-11.509
	c3.271-5.412,8.559-9.086,13.164-13.257c-6.396,1.945-12.057,5.661-16.962,10.142c-0.642-8.518-2.039-16.993-4.698-25.117
	c3.497-7.037,8.538-13.092,13.981-18.681c-6.323,3.043-11.747,7.607-16.176,13.02c-3.498-7.689-7.275-15.348-12.513-22.013
	c6.262,12.854,8.486,27.416,6.81,41.594c-4.988-5.103-11.032-9.159-17.873-11.302c5.103,4.74,11.219,8.911,14.168,15.462
	c2.006,4.463,1.695,9.521-0.074,14.013c0,0-0.609,4.038-5.202,7.693c-1.688,1.343-3.697,2.599-5.785,3.2
	c-3.052,0.88-6.55,0.861-9.697,1.384c-3.096,0.515-6.176,1.136-9.227,1.875c-4.334,1.05-8.622,2.328-12.783,3.937
	c-1.588,0.614-3.194,1.249-4.703,2.043c13.68-2.835,27.977-4.085,41.943-4.072c3.25,0.002,4.475-2.426,5.997-4.961
	c1.568-2.61,2.85-5.387,3.879-8.252c2.077-5.779,3.135-11.885,3.621-17.994c0.262-3.285,0.356-6.582,0.343-9.877
	c2.498,13.592-0.604,27.824-5.223,40.646c-0.008,0.02-0.015,0.039-0.021,0.06l-0.001,0.001c-0.013,0.035-0.025-0.102-0.038-0.064
	c-0.033,0.109-0.046,0.061,0.177,0.061h0.028c31.428,1,58.783,4.281,58.783,4.281C104.488,126.415,99.152,125.083,93.995,123.835z" fill="#6b432b"></path></g>
<g transform="translate(20.383050984117 235.85729471751)  scale(0.67308118908895 0.67308118908895)"><text dominant-baseline="auto" alignment-baseline="auto" font-family="Fontastique" font-size="62px" fill="#6b432b" letter-spacing="0" xml:space="preserve">Les Minots de Ndiamane</text></g>
<g transform="translate(146.5217173181 153.60930930047) scale(1 1.0000006366673) rotate(0 13.474998474121 11.983329772949)"><path d="M13.52,21.83c7.828-0.371,11.619,2.04,11.619,2.04c-2.307-6.029-10.053-6.307-10.053-6.307
 c1.482-1.485,2.971-3.615,2.971-3.615c5.002,2.175,8.869-1.95,8.869-1.95c-2.803,0.928-4.697-0.186-6.264-1.021
 c-1.565-0.835-2.637-1.669-5.768-3.71C11.764,5.229,9.29,5.32,9.29,5.32C5.252,5.599,3.688,7.453,3.688,7.453
  c2.802-0.558,4.449,0.185,6.18,1.206c1.73,1.021,3.049,2.133,3.049,2.133c-1.813,4.082-1.703,7.792-1.703,7.792
 S10.903,21.83,13.52,21.83z" fill="#6b432b"></path><path d="M22.592,0.872c-1.094-1.298-3.126-1.127-4.537,0.38c-1.412,1.508-1.669,3.783-0.575,5.079
        c1.095,1.297,3.125,1.128,4.537-0.38C23.428,4.444,23.685,2.17,22.592,0.872z M9.574,18.908C3.294,22.318,0,17.546,0,17.546
     c1.185,6.179,5.953,6.395,5.953,6.395c3.351,0.138,5.589-1.256,5.589-1.256C9.207,21.883,9.574,18.908,9.574,18.908z" fill="#6b432b"></path></g>
</svg>